<?xml version="1.0" standalone="no"?><!DOCTYPE svg PUBLIC "-//W3C//DTD SVG 1.1//EN" "http://www.w3.org/Graphics/SVG/1.1/DTD/svg11.dtd"><svg t="1484294119127" class="icon" style="" viewBox="0 0 1024 1024" version="1.1" xmlns="http://www.w3.org/2000/svg" p-id="4721" xmlns:xlink="http://www.w3.org/1999/xlink" width="200" height="200"><defs><style type="text/css"></style></defs><path d="M624.112 547.68C633.872 538.912 640 526.16 640 512s-6.144-26.896-15.888-35.68l0 0-160-144 0 0C455.6 324.672 444.352 320 432 320c-26.512 0-48 21.488-48 48 0 14.16 6.128 26.896 15.888 35.68l0 0L466.912 464 176 464c-26.512 0-48 21.488-48 48s21.488 48 48 48l290.912 0-67.024 60.32 0 0C390.144 629.12 384 641.84 384 656c0 26.512 21.488 48 48 48 12.352 0 23.6-4.672 32.112-12.32l0 0L624.112 547.68 624.112 547.68zM896 510.912 896 142.96c0-26.512-21.488-48-48-48L608 94.96c-26.512 0-48 21.488-48 48 0 26.512 21.488 48 48 48l192 0 0 640L608 830.96c-26.512 0-48 21.472-48 48 0 26.496 21.488 48 48 48l240 0c26.512 0 48-21.504 48-48L896 510.992c0-0.016 0-0.032 0-0.048C896 510.944 896 510.928 896 510.912z" p-id="4722"></path></svg>