<?xml version="1.0" standalone="no"?><!DOCTYPE svg PUBLIC "-//W3C//DTD SVG 1.1//EN" "http://www.w3.org/Graphics/SVG/1.1/DTD/svg11.dtd"><svg t="1484294238893" class="icon" style="" viewBox="0 0 1024 1024" version="1.1" xmlns="http://www.w3.org/2000/svg" p-id="7555" xmlns:xlink="http://www.w3.org/1999/xlink" width="200" height="200"><defs><style type="text/css"></style></defs><path d="M729.744721 682.265872c-49.328475-15.829524-117.555369-37.660738-139.362025-44.226271-20.131503-6.062066-10.355859-82.758865-0.712221-91.76396 10.842952-10.111289 32.821523-78.544891 36.142152-93.913926 4.009314-18.578124 26.719548-10.841929 32.495088-23.842011 5.767354-12.993942 4.325515-75.071789-1.440815-85.249593-5.776563-10.171664-20.23281 0-20.23281 0s8.874111-18.72548 12.740162-44.790112c3.879354-26.069749-19.318998-124.928291-60.410881-143.110395-44.578288-19.704784-66.49546-20.222577-93.937462-20.180622l-13.004175 0.100284c-22.131043 0.527003-43.571355 3.559059-80.919984 20.080338-41.094954 18.182105-64.292282 117.040646-60.423161 143.110395 3.877307 26.064632 12.749372 44.790112 12.749372 44.790112s-14.456247-10.171664-20.231787 0c-5.777587 10.17678-7.208169 72.254627-1.432629 85.249593 5.76633 13.001105 28.475542 5.263887 32.486902 23.842011 3.319605 15.370059 25.298176 83.803661 36.140105 93.913926 9.644661 9.005095 19.420305 85.691661-0.711198 91.76396-21.276582 6.407943-87.560218 27.859511-136.469138 43.549865l5.740748 5.392824c60.529585 54.377468 140.520407 87.500866 228.102115 87.500866 87.295182 0 167.04962-32.905434 227.506551-86.966701L729.744721 682.265872z" p-id="7556"></path><path d="M496.476957 822.240857c-50.786687 0-100.062973-9.950629-146.458653-29.572526-44.805462-18.950607-85.040838-46.075385-119.588679-80.624249-34.547841-34.547841-61.674665-74.783217-80.625272-119.588679-19.62292-46.396703-29.572526-95.67299-29.572526-146.4607 0-50.78771 9.949606-100.063997 29.572526-146.4607 18.950607-44.805462 46.076408-85.040838 80.625272-119.588679s74.783217-61.672618 119.588679-80.623225c46.39568-19.62292 95.671966-29.572526 146.458653-29.572526 50.78771 0 100.062973 9.949606 146.459676 29.572526 44.805462 18.950607 85.040838 46.075385 119.588679 80.623225 34.548864 34.547841 61.675688 74.783217 80.626295 119.588679 19.62292 46.39568 29.572526 95.671966 29.572526 146.4607 0 50.78771-9.950629 100.063997-29.572526 146.4607-18.951631 44.805462-46.077432 85.040838-80.625272 119.588679-34.548864 34.548864-74.78424 61.674665-119.589702 80.624249C596.53993 812.290227 547.264667 822.240857 496.476957 822.240857zM496.476957 102.496395c-189.405791 0-343.499331 154.092517-343.499331 343.498308 0 189.406814 154.093541 343.500355 343.499331 343.500355 189.407837 0 343.502401-154.093541 343.502401-343.500355C839.979358 256.588913 685.884794 102.496395 496.476957 102.496395z" p-id="7557"></path></svg>